#!OML:ASF H:\GeneralSubjects\Female5\Project 1\Capture day 1\Session 1\Female5.ASF
:FULLY-SPECIFIED
:DEGREES
765
root 5.68802 16.0481 3.28218 113.779 -86.3503 -110.846
lowerback 9.73503 3.55233 -1.56707
upperback -9.20879 4.19885 -1.41053
thorax -15.7981 1.92915 -1.6613
lowerneck -13.6964 7.99437 8.98461
upperneck 17.0466 12.1055 -15.8925
head 9.19359 4.67998 -5.40623
rclavicle 2.50469e-014 -3.26007e-014
rhumerus -58.264 22.9995 -95.6796
rradius 48.7653
rwrist 6.37925
rhand -22.5717 -12.8539
rfingers 7.12502
rthumb 3.8567 -42.7988
lclavicle 2.50469e-014 -3.26007e-014
lhumerus -62.0953 -32.049 107.112
lradius 48.4061
lwrist 17.9987
lhand -7.7256 26.289
lfingers 7.12502
lthumb 18.1728 -304.54
rfemur -10.4469 8.29754 6.94988
rtibia 21.6014
rfoot 344.696 -36.9735
rtoes 27.4693
lfemur -0.545027 -18.7502 -30.9205
ltibia 8.6039
lfoot -24.5526 -8.41095
ltoes -17.8689
766
root 5.67672 16.0646 3.20046 106.955 -86.0372 -103.753
lowerback 9.63051 3.59494 -0.97367
upperback -9.17785 4.34833 -1.52671
thorax -15.6283 1.92844 -2.14397
lowerneck -13.6419 8.19531 8.95041
upperneck 18.0855 12.5377 -15.9211
head 9.60289 4.82656 -5.37357
rclavicle 2.80286e-014 -2.38542e-015
rhumerus -58.0397 23.4441 -96.5317
rradius 48.3833
rwrist 5.99627
rhand -22.9232 -12.2163
rfingers 7.12502
rthumb 3.51728 -42.167
lclavicle 2.80286e-014 -2.38542e-015
lhumerus -61.6696 -32.3315 107.141
lradius 48.0522
lwrist 19.1243
lhand -7.89317 26.1617
lfingers 7.12502
lthumb 18.0116 -304.652
rfemur -8.00125 11.5834 8.86652
rtibia 18.684
rfoot 335.443 -34.0773
rtoes 28.8109
lfemur -0.808213 -19.2182 -30.0607
ltibia 8.5427
lfoot -24.6001 -8.52284
ltoes -17.4349
767
root 5.66962 16.0755 3.11454 102.368 -85.5941 -98.8617
lowerback 9.4812 3.56604 -0.477775
upperback -9.10168 4.41643 -1.41425
thorax -15.4032 1.9224 -2.29179
lowerneck -12.9798 8.70638 8.55017
upperneck 18.2036 13.4039 -16.0156
head 9.62312 5.20448 -5.22843
rclavicle -5.1684e-015 -1.59028e-015
rhumerus -57.8078 24.4377 -97.1531
rradius 48.0944
rwrist 5.58046
rhand -23.3805 -12.0521
rfingers 7.12502
rthumb 3.07567 -42.0097
lclavicle -5.1684e-015 -1.59028e-015
lhumerus -60.7452 -32.0437 106.846
lradius 47.5776
lwrist 19.7736
lhand -8.38636 26.2634
lfingers 7.12502
lthumb 17.5371 -304.508
rfemur -5.83777 14.5854 10.8471
rtibia 15.9903
rfoot 328.921 -31.8584
rtoes 26.9522
lfemur -1.04669 -19.7422 -29.1148
ltibia 8.38422
lfoot -24.7706 -8.53154
ltoes -17.2194
768
root 5.66888 16.085 3.02991 98.3777 -85.3472 -94.5329
lowerback 9.39724 3.73309 0.203943
upperback -9.09051 4.72347 -1.69659
thorax -15.2398 1.9754 -3.04374
lowerneck -13.4898 8.83921 8.64053
upperneck 21.0554 13.7733 -15.3187
head 10.7351 5.28758 -4.99341
rclavicle -2.76311e-014 -1.59028e-014
rhumerus -57.3706 24.2842 -97.4368
rradius 47.9439
rwrist 5.07672
rhand -23.1375 -12.2687
rfingers 7.12502
rthumb 3.31031 -42.2228
lclavicle -2.76311e-014 -1.59028e-014
lhumerus -60.0288 -32.5595 106.616
lradius 47.0638
lwrist 20.1756
lhand -8.78407 26.8086
lfingers 7.12502
lthumb 17.1543 -303.929
rfemur -3.75114 16.9928 12.4385
rtibia 13.1414
rfoot 323.314 -30.35
rtoes 24.4234
lfemur -1.45027 -20.143 -28.3715
ltibia 8.36909
lfoot -24.7704 -8.59769
ltoes -16.9601
769
root 5.67339 16.1025 2.95159 92.188 -85.2278 -88.1963
lowerback 9.7337 4.10571 1.46222
upperback -9.1561 5.329 -2.57314
thorax -15.2984 2.05043 -4.8866
lowerneck -13.3274 8.4998 9.10071
upperneck 23.6081 13.226 -14.2374
head 11.5104 5.09463 -4.84529
rclavicle 2.42517e-014 -2.54444e-014
rhumerus -56.812 22.2503 -97.4913
rradius 47.8579
rwrist 5.0013
rhand -22.4004 -12.9395
rfingers 7.12502
rthumb 4.0221 -42.8813
lclavicle 2.42517e-014 -2.54444e-014
lhumerus -60.1109 -34.4183 106.656
lradius 46.7633
lwrist 20.3575
lhand -8.91564 27.518
lfingers 7.12502
lthumb 17.0276 -303.208
rfemur -1.26524 19.0121 13.813
rtibia 9.85936
rfoot 316.979 -26.9361
rtoes 26.3221
lfemur -1.76002 -20.4731 -27.8342
ltibia 8.50353
lfoot -24.5422 -8.75936
ltoes -16.6802
